# xmcd CD database file
#
# Track frame offsets:
#	150
#	16737
#	22445
#	40965
#	56958
#	70032
#	90655
#	110209
#	126127
#	147078
#	167497
#	183789
#	200256
#	218367
#
# Disc length: 3247 seconds
#
# Revision: 1
# Processed by: cddbd v1.5.2PL0 Copyright (c) Steve Scherf et al.
# Submitted via: CDex 1.51
#
DISCID=c10cad0e
DTITLE=Buckwheat Zydeco - Bayou Boogie
DYEAR=2010
DGENRE=New Genre
TTITLE0=Loop de Loop
TTITLE1=Buck's Bayou Intro
TTITLE2=We're Having a Party
TTITLE3=Barefootin'
TTITLE4=The Loco-motion
TTITLE5=The Mice Ate My Rice
TTITLE6=Ripsy Dipsy
TTITLE7=Walking the Dog
TTITLE8=Everything Hurts
TTITLE9=Zydeco in Space
TTITLE10=Twist and Shout
TTITLE11=Hokey Pokey
TTITLE12=The Party's over
TTITLE13=There Will Always Be Tomorrow
EXTD=YEAR: 2010
EXTT0=
EXTT1=
EXTT2=
EXTT3=
EXTT4=
EXTT5=
EXTT6=
EXTT7=
EXTT8=
EXTT9=
EXTT10=
EXTT11=
EXTT12=
EXTT13=
PLAYORDER=
